<svg width="1728" height="2136" viewBox="0 0 1728 2136" fill="none" xmlns="http://www.w3.org/2000/svg">
<g opacity="0.15">
<mask id="mask0_12_18" style="mask-type:alpha" maskUnits="userSpaceOnUse" x="0" y="0" width="1728" height="2136">
<rect width="1728" height="2136" fill="url(#paint0_linear_12_18)"/>
</mask>
<g mask="url(#mask0_12_18)">
<path d="M-245.122 1488.28C-232.751 1388.97 -99.4352 1354.28 -19.5144 1380.38C-19.5144 1380.38 -75.5079 1502.42 -131.067 1519.99C-180.067 1536.68 -250.112 1548.61 -245.074 1488.27L-245.122 1488.28Z" fill="black" fill-opacity="0.15"/>
<path d="M467.764 711.715C480.135 612.405 613.451 577.709 693.372 603.812C693.372 603.812 637.379 725.85 581.82 743.421C532.819 760.117 462.775 772.04 467.813 711.705L467.764 711.715Z" fill="black" fill-opacity="0.15"/>
<path d="M399.956 412.113C412.327 312.803 545.643 278.107 625.564 304.21C625.564 304.21 569.57 426.248 514.012 443.819C465.011 460.515 394.966 472.438 400.005 412.103L399.956 412.113Z" fill="black" fill-opacity="0.15"/>
<path d="M332.148 112.511C344.519 13.2012 477.835 -21.4949 557.756 4.6077C557.756 4.6077 501.762 126.646 446.204 144.218C397.203 160.913 327.158 172.837 332.197 112.501L332.148 112.511Z" fill="black" fill-opacity="0.15"/>
<path d="M535.679 1011.79C548.05 912.479 681.366 877.783 761.287 903.886C761.287 903.886 705.293 1025.92 649.734 1043.5C600.734 1060.19 530.689 1072.11 535.727 1011.78L535.679 1011.79Z" fill="black" fill-opacity="0.15"/>
<path d="M603.621 1311.98C615.992 1212.67 749.308 1177.98 829.229 1204.08C829.229 1204.08 773.235 1326.12 717.676 1343.69C668.676 1360.38 598.631 1372.31 603.669 1311.97L603.621 1311.98Z" fill="black" fill-opacity="0.15"/>
<path d="M-217.259 1611.39C-163.065 1696.87 -26.7208 1675.56 34.738 1620.09C34.738 1620.09 -68.9878 1531.22 -127.154 1537.28C-178.972 1541.52 -247.881 1558.46 -217.211 1611.38L-217.259 1611.39Z" fill="black" fill-opacity="0.15"/>
<path d="M495.627 834.823C549.822 920.306 686.165 898.988 747.624 843.518C747.624 843.518 643.898 754.657 585.732 760.708C533.914 764.955 465.005 781.895 495.675 834.813L495.627 834.823Z" fill="black" fill-opacity="0.15"/>
<path d="M427.819 535.222C482.014 620.704 618.357 599.387 679.816 543.917C679.816 543.917 576.09 455.056 517.924 461.107C466.106 465.353 397.197 482.293 427.867 535.211L427.819 535.222Z" fill="black" fill-opacity="0.15"/>
<path d="M360.011 235.619C414.205 321.102 550.549 299.785 612.008 244.315C612.008 244.315 508.282 155.453 450.116 161.505C398.298 165.751 329.389 182.691 360.059 235.609L360.011 235.619Z" fill="black" fill-opacity="0.15"/>
<path d="M563.542 1134.9C617.736 1220.38 754.08 1199.06 815.539 1143.59C815.539 1143.59 711.813 1054.73 653.647 1060.78C601.829 1065.03 532.919 1081.97 563.59 1134.89L563.542 1134.9Z" fill="black" fill-opacity="0.15"/>
<path d="M631.483 1435.09C685.678 1520.57 822.022 1499.26 883.481 1443.79C883.481 1443.79 779.755 1354.92 721.589 1360.98C669.77 1365.22 600.861 1382.16 631.532 1435.08L631.483 1435.09Z" fill="black" fill-opacity="0.15"/>
<path d="M-168.593 843.899C-156.222 744.589 -22.906 709.893 57.0149 735.995C57.0149 735.995 1.02141 858.033 -54.5373 875.605C-103.538 892.301 -173.583 904.224 -168.544 843.889L-168.593 843.899Z" fill="black" fill-opacity="0.15"/>
<path d="M-236.401 544.297C-224.03 444.987 -90.714 410.291 -10.7931 436.394C-10.7931 436.394 -66.7866 558.432 -122.345 576.003C-171.346 592.699 -241.391 604.623 -236.352 544.287L-236.401 544.297Z" fill="black" fill-opacity="0.15"/>
<path d="M-100.678 1143.97C-88.3067 1044.66 45.0091 1009.97 124.93 1036.07C124.93 1036.07 68.9364 1158.11 13.3778 1175.68C-35.6229 1192.38 -105.668 1204.3 -100.629 1143.96L-100.678 1143.97Z" fill="black" fill-opacity="0.15"/>
<path d="M-32.7362 1444.17C-20.3651 1344.86 112.951 1310.16 192.872 1336.26C192.872 1336.26 136.878 1458.3 81.3194 1475.87C32.3187 1492.57 -37.7259 1504.49 -32.6877 1444.16L-32.7362 1444.17Z" fill="black" fill-opacity="0.15"/>
<path d="M680.15 667.599C692.521 568.289 825.836 533.593 905.757 559.695C905.757 559.695 849.764 681.733 794.205 699.305C745.204 716.001 675.16 727.924 680.198 667.589L680.15 667.599Z" fill="black" fill-opacity="0.15"/>
<path d="M612.341 367.997C624.713 268.687 758.028 233.991 837.949 260.093C837.949 260.093 781.956 382.131 726.397 399.703C677.396 416.399 607.352 428.322 612.39 367.987L612.341 367.997Z" fill="black" fill-opacity="0.15"/>
<path d="M544.533 68.3946C556.904 -30.9151 690.22 -65.6112 770.141 -39.5086C770.141 -39.5086 714.148 82.5295 658.589 100.101C609.588 116.797 539.544 128.72 544.582 68.3845L544.533 68.3946Z" fill="black" fill-opacity="0.15"/>
<path d="M748.064 967.673C760.435 868.363 893.751 833.667 973.672 859.77C973.672 859.77 917.678 981.808 862.12 999.38C813.119 1016.08 743.074 1028 748.113 967.663L748.064 967.673Z" fill="black" fill-opacity="0.15"/>
<path d="M816.006 1267.87C828.377 1168.56 961.693 1133.86 1041.61 1159.96C1041.61 1159.96 985.62 1282 930.062 1299.57C881.061 1316.27 811.016 1328.19 816.054 1267.86L816.006 1267.87Z" fill="black" fill-opacity="0.15"/>
<path d="M-140.73 967.007C-86.5355 1052.49 49.8082 1031.17 111.267 975.702C111.267 975.702 7.54129 886.841 -50.6248 892.892C-102.443 897.138 -171.352 914.078 -140.682 966.996L-140.73 967.007Z" fill="black" fill-opacity="0.15"/>
<path d="M-208.538 667.405C-154.343 752.887 -17.9997 731.57 43.4591 676.1C43.4591 676.1 -60.2666 587.239 -118.433 593.29C-170.251 597.536 -239.16 614.476 -208.49 667.395L-208.538 667.405Z" fill="black" fill-opacity="0.15"/>
<path d="M-72.8154 1267.08C-18.6207 1352.56 117.723 1331.25 179.182 1275.78C179.182 1275.78 75.4561 1186.92 17.29 1192.97C-34.5284 1197.21 -103.438 1214.15 -72.7669 1267.07L-72.8154 1267.08Z" fill="black" fill-opacity="0.15"/>
<path d="M-4.87352 1567.27C49.3212 1652.76 185.665 1631.44 247.124 1575.97C247.124 1575.97 143.398 1487.11 85.2319 1493.16C33.4135 1497.41 -35.4956 1514.35 -4.82503 1567.26L-4.87352 1567.27Z" fill="black" fill-opacity="0.15"/>
<path d="M708.012 790.706C762.206 876.189 898.55 854.872 960.009 799.402C960.009 799.402 856.283 710.54 798.117 716.591C746.299 720.838 677.39 737.778 708.06 790.696L708.012 790.706Z" fill="black" fill-opacity="0.15"/>
<path d="M640.204 491.104C694.399 576.587 830.743 555.27 892.201 499.8C892.201 499.8 788.476 410.938 730.31 416.99C678.491 421.236 609.582 438.176 640.253 491.094L640.204 491.104Z" fill="black" fill-opacity="0.15"/>
<path d="M572.396 191.502C626.591 276.985 762.934 255.668 824.393 200.198C824.393 200.198 720.668 111.336 662.501 117.388C610.683 121.634 541.774 138.574 572.445 191.492L572.396 191.502Z" fill="black" fill-opacity="0.15"/>
<path d="M775.927 1090.78C830.121 1176.26 966.465 1154.95 1027.92 1099.48C1027.92 1099.48 924.198 1010.61 866.032 1016.67C814.214 1020.91 745.305 1037.85 775.975 1090.77L775.927 1090.78Z" fill="black" fill-opacity="0.15"/>
<path d="M843.869 1390.97C898.063 1476.46 1034.41 1455.14 1095.87 1399.67C1095.87 1399.67 992.14 1310.81 933.974 1316.86C882.156 1321.1 813.247 1338.05 843.917 1390.96L843.869 1390.97Z" fill="black" fill-opacity="0.15"/>
<path d="M43.3473 799.875C55.7184 700.565 189.034 665.869 268.955 691.971C268.955 691.971 212.962 814.01 157.403 831.581C108.402 848.277 38.3576 860.2 43.3958 799.865L43.3473 799.875Z" fill="black" fill-opacity="0.15"/>
<path d="M-24.4608 500.273C-12.0897 400.963 121.226 366.267 201.147 392.369C201.147 392.369 145.153 514.408 89.5948 531.979C40.5941 548.675 -29.4505 560.598 -24.4123 500.263L-24.4608 500.273Z" fill="black" fill-opacity="0.15"/>
<path d="M-92.2689 200.671C-79.8978 101.361 53.4181 66.665 133.339 92.7676C133.339 92.7676 77.3454 214.806 21.7867 232.377C-27.214 249.073 -97.2586 260.996 -92.2205 200.661L-92.2689 200.671Z" fill="black" fill-opacity="0.15"/>
<path d="M111.262 1099.95C123.633 1000.64 256.949 965.943 336.87 992.046C336.87 992.046 280.877 1114.08 225.318 1131.66C176.317 1148.35 106.273 1160.27 111.311 1099.94L111.262 1099.95Z" fill="black" fill-opacity="0.15"/>
<path d="M179.204 1400.14C191.575 1300.83 324.891 1266.14 404.812 1292.24C404.812 1292.24 348.818 1414.28 293.259 1431.85C244.259 1448.54 174.214 1460.47 179.252 1400.13L179.204 1400.14Z" fill="black" fill-opacity="0.15"/>
<path d="M892.09 623.574C904.461 524.265 1037.78 489.568 1117.7 515.671C1117.7 515.671 1061.7 637.709 1006.15 655.281C957.145 671.977 887.1 683.9 892.138 623.564L892.09 623.574Z" fill="black" fill-opacity="0.15"/>
<path d="M1316.41 535.434C1328.78 436.125 1462.1 401.429 1542.02 427.531C1542.02 427.531 1486.03 549.569 1430.47 567.141C1381.47 583.837 1311.42 595.76 1316.46 535.424L1316.41 535.434Z" fill="black" fill-opacity="0.15"/>
<path d="M1740.56 447.331C1752.93 348.022 1886.24 313.326 1966.16 339.428C1966.16 339.428 1910.17 461.466 1854.61 479.038C1805.61 495.734 1735.57 507.657 1740.6 447.321L1740.56 447.331Z" fill="black" fill-opacity="0.15"/>
<path d="M824.282 323.972C836.653 224.663 969.969 189.967 1049.89 216.069C1049.89 216.069 993.896 338.107 938.337 355.679C889.337 372.375 819.292 384.298 824.33 323.962L824.282 323.972Z" fill="black" fill-opacity="0.15"/>
<path d="M756.474 24.3704C768.845 -74.9394 902.161 -109.636 982.082 -83.5329C982.082 -83.5329 926.088 38.5052 870.529 56.0769C821.529 72.7728 751.484 84.696 756.522 24.3603L756.474 24.3704Z" fill="black" fill-opacity="0.15"/>
<path d="M1248.6 235.832C1260.97 136.523 1394.29 101.827 1474.21 127.929C1474.21 127.929 1418.22 249.967 1362.66 267.539C1313.66 284.235 1243.61 296.158 1248.65 235.822L1248.6 235.832Z" fill="black" fill-opacity="0.15"/>
<path d="M1672.75 147.729C1685.12 48.4196 1818.43 13.7235 1898.36 39.8261C1898.36 39.8261 1842.36 161.864 1786.8 179.436C1737.8 196.132 1667.76 208.055 1672.8 147.719L1672.75 147.729Z" fill="black" fill-opacity="0.15"/>
<path d="M960.005 923.649C972.376 824.339 1105.69 789.643 1185.61 815.745C1185.61 815.745 1129.62 937.784 1074.06 955.355C1025.06 972.051 955.015 983.974 960.053 923.639L960.005 923.649Z" fill="black" fill-opacity="0.15"/>
<path d="M1384.33 835.509C1396.7 736.199 1530.01 701.503 1609.93 727.606C1609.93 727.606 1553.94 849.644 1498.38 867.215C1449.38 883.911 1379.34 895.834 1384.37 835.499L1384.33 835.509Z" fill="black" fill-opacity="0.15"/>
<path d="M1027.95 1223.84C1040.32 1124.53 1173.63 1089.84 1253.55 1115.94C1253.55 1115.94 1197.56 1237.98 1142 1255.55C1093 1272.24 1022.96 1284.17 1027.99 1223.83L1027.95 1223.84Z" fill="black" fill-opacity="0.15"/>
<path d="M1452.27 1135.7C1464.64 1036.39 1597.95 1001.7 1677.88 1027.8C1677.88 1027.8 1621.88 1149.84 1566.32 1167.41C1517.32 1184.1 1447.28 1196.03 1452.32 1135.69L1452.27 1135.7Z" fill="black" fill-opacity="0.15"/>
<path d="M71.21 922.983C125.405 1008.47 261.748 987.148 323.207 931.678C323.207 931.678 219.481 842.817 161.315 848.868C109.497 853.114 40.5879 870.054 71.2585 922.973L71.21 922.983Z" fill="black" fill-opacity="0.15"/>
<path d="M3.40187 623.381C57.5966 708.863 193.94 687.546 255.399 632.076C255.399 632.076 151.673 543.215 93.5073 549.266C41.6889 553.512 -27.2202 570.452 3.45036 623.371L3.40187 623.381Z" fill="black" fill-opacity="0.15"/>
<path d="M-64.4062 323.779C-10.2115 409.262 126.132 387.944 187.591 332.474C187.591 332.474 83.8653 243.613 25.6992 249.664C-26.1192 253.91 -95.0284 270.851 -64.3577 323.769L-64.4062 323.779Z" fill="black" fill-opacity="0.15"/>
<path d="M139.125 1223.06C193.319 1308.54 329.663 1287.22 391.122 1231.75C391.122 1231.75 287.396 1142.89 229.23 1148.94C177.412 1153.19 108.502 1170.13 139.173 1223.05L139.125 1223.06Z" fill="black" fill-opacity="0.15"/>
<path d="M207.066 1523.25C261.261 1608.73 397.605 1587.41 459.064 1531.94C459.064 1531.94 355.338 1443.08 297.172 1449.13C245.353 1453.38 176.444 1470.32 207.115 1523.24L207.066 1523.25Z" fill="black" fill-opacity="0.15"/>
<path d="M919.953 746.682C974.147 832.165 1110.49 810.847 1171.95 755.378C1171.95 755.378 1068.22 666.516 1010.06 672.567C958.24 676.814 889.331 693.754 920.001 746.672L919.953 746.682Z" fill="black" fill-opacity="0.15"/>
<path d="M1344.27 658.542C1398.47 744.025 1534.81 722.708 1596.27 667.238C1596.27 667.238 1492.54 578.376 1434.38 584.427C1382.56 588.674 1313.65 605.614 1344.32 658.532L1344.27 658.542Z" fill="black" fill-opacity="0.15"/>
<path d="M852.145 447.081C906.339 532.563 1042.68 511.246 1104.14 455.776C1104.14 455.776 1000.42 366.915 942.25 372.966C890.432 377.212 821.522 394.152 852.193 447.07L852.145 447.081Z" fill="black" fill-opacity="0.15"/>
<path d="M784.336 147.478C838.531 232.961 974.875 211.644 1036.33 156.174C1036.33 156.174 932.608 67.3123 874.442 73.3635C822.623 77.6098 753.714 94.55 784.385 147.468L784.336 147.478Z" fill="black" fill-opacity="0.15"/>
<path d="M1276.47 358.94C1330.66 444.423 1467 423.106 1528.46 367.636C1528.46 367.636 1424.74 278.774 1366.57 284.826C1314.75 289.072 1245.84 306.012 1276.51 358.93L1276.47 358.94Z" fill="black" fill-opacity="0.15"/>
<path d="M1208.66 59.3385C1262.85 144.821 1399.2 123.504 1460.65 68.0338C1460.65 68.0338 1356.93 -20.8275 1298.76 -14.7763C1246.94 -10.5301 1178.04 6.41014 1208.71 59.3284L1208.66 59.3385Z" fill="black" fill-opacity="0.15"/>
<path d="M1700.61 270.837C1754.8 356.32 1891.15 335.003 1952.61 279.533C1952.61 279.533 1848.88 190.671 1790.72 196.723C1738.9 200.969 1669.99 217.909 1700.66 270.827L1700.61 270.837Z" fill="black" fill-opacity="0.15"/>
<path d="M1632.8 -28.7646C1687 56.7182 1823.34 35.4007 1884.8 -20.0692C1884.8 -20.0692 1781.07 -108.931 1722.91 -102.879C1671.09 -98.6331 1602.18 -81.6929 1632.85 -28.7746L1632.8 -28.7646Z" fill="black" fill-opacity="0.15"/>
<path d="M987.868 1046.76C1042.06 1132.24 1178.41 1110.92 1239.86 1055.45C1239.86 1055.45 1136.14 966.591 1077.97 972.642C1026.15 976.888 957.246 993.828 987.916 1046.75L987.868 1046.76Z" fill="black" fill-opacity="0.15"/>
<path d="M1412.19 958.617C1466.38 1044.1 1602.73 1022.78 1664.19 967.312C1664.19 967.312 1560.46 878.451 1502.29 884.502C1450.48 888.748 1381.57 905.689 1412.24 958.607L1412.19 958.617Z" fill="black" fill-opacity="0.15"/>
<path d="M1055.81 1346.95C1110 1432.43 1246.35 1411.11 1307.81 1355.64C1307.81 1355.64 1204.08 1266.78 1145.91 1272.83C1094.1 1277.08 1025.19 1294.02 1055.86 1346.94L1055.81 1346.95Z" fill="black" fill-opacity="0.15"/>
<path d="M1480.13 1258.81C1534.32 1344.29 1670.67 1322.97 1732.13 1267.5C1732.13 1267.5 1628.4 1178.64 1570.24 1184.69C1518.42 1188.94 1449.51 1205.88 1480.18 1258.8L1480.13 1258.81Z" fill="black" fill-opacity="0.15"/>
<path d="M255.287 755.851C267.658 656.541 400.974 621.845 480.895 647.947C480.895 647.947 424.902 769.986 369.343 787.557C320.342 804.253 250.298 816.176 255.336 755.841L255.287 755.851Z" fill="black" fill-opacity="0.15"/>
<path d="M187.479 456.249C199.85 356.939 333.166 322.243 413.087 348.346C413.087 348.346 357.093 470.384 301.535 487.955C252.534 504.651 182.489 516.574 187.528 456.239L187.479 456.249Z" fill="black" fill-opacity="0.15"/>
<path d="M119.671 156.647C132.042 57.337 265.358 22.6409 345.279 48.7435C345.279 48.7435 289.285 170.782 233.727 188.353C184.726 205.049 114.681 216.972 119.719 156.637L119.671 156.647Z" fill="black" fill-opacity="0.15"/>
<path d="M323.202 1055.92C335.573 956.615 468.889 921.919 548.81 948.022C548.81 948.022 492.817 1070.06 437.258 1087.63C388.257 1104.33 318.213 1116.25 323.251 1055.91L323.202 1055.92Z" fill="black" fill-opacity="0.15"/>
<path d="M391.144 1356.12C403.515 1256.81 536.831 1222.11 616.751 1248.21C616.751 1248.21 560.758 1370.25 505.199 1387.82C456.199 1404.52 386.154 1416.44 391.192 1356.11L391.144 1356.12Z" fill="black" fill-opacity="0.15"/>
<path d="M1104.03 579.55C1116.4 480.241 1249.72 445.545 1329.64 471.647C1329.64 471.647 1273.64 593.685 1218.09 611.257C1169.08 627.953 1099.04 639.876 1104.08 579.54L1104.03 579.55Z" fill="black" fill-opacity="0.15"/>
<path d="M1528.35 491.411C1540.72 392.101 1674.04 357.405 1753.96 383.507C1753.96 383.507 1697.96 505.546 1642.41 523.117C1593.41 539.813 1523.36 551.736 1528.4 491.401L1528.35 491.411Z" fill="black" fill-opacity="0.15"/>
<path d="M1036.22 279.948C1048.59 180.639 1181.91 145.942 1261.83 172.045C1261.83 172.045 1205.84 294.083 1150.28 311.655C1101.28 328.351 1031.23 340.274 1036.27 279.938L1036.22 279.948Z" fill="black" fill-opacity="0.15"/>
<path d="M968.413 -19.6535C980.784 -118.963 1114.1 -153.659 1194.02 -127.557C1194.02 -127.557 1138.03 -5.51865 1082.47 12.053C1033.47 28.7489 963.423 40.6721 968.462 -19.6636L968.413 -19.6535Z" fill="black" fill-opacity="0.15"/>
<path d="M1460.54 191.808C1472.91 92.4987 1606.23 57.8026 1686.15 83.9052C1686.15 83.9052 1630.16 205.943 1574.6 223.515C1525.6 240.211 1455.55 252.134 1460.59 191.798L1460.54 191.808Z" fill="black" fill-opacity="0.15"/>
<path d="M1171.94 879.624C1184.32 780.315 1317.63 745.619 1397.55 771.721C1397.55 771.721 1341.56 893.759 1286 911.331C1237 928.027 1166.95 939.95 1171.99 879.614L1171.94 879.624Z" fill="black" fill-opacity="0.15"/>
<path d="M1596.27 791.485C1608.64 692.175 1741.95 657.479 1821.87 683.582C1821.87 683.582 1765.88 805.62 1710.32 823.191C1661.32 839.887 1591.28 851.81 1596.31 791.475L1596.27 791.485Z" fill="black" fill-opacity="0.15"/>
<path d="M1239.89 1179.82C1252.26 1080.51 1385.57 1045.81 1465.49 1071.91C1465.49 1071.91 1409.5 1193.95 1353.94 1211.52C1304.94 1228.22 1234.9 1240.14 1239.93 1179.81L1239.89 1179.82Z" fill="black" fill-opacity="0.15"/>
<path d="M1664.21 1091.68C1676.58 992.368 1809.89 957.671 1889.81 983.774C1889.81 983.774 1833.82 1105.81 1778.26 1123.38C1729.26 1140.08 1659.22 1152 1664.26 1091.67L1664.21 1091.68Z" fill="black" fill-opacity="0.15"/>
<path d="M283.15 878.958C337.345 964.441 473.688 943.124 535.147 887.654C535.147 887.654 431.421 798.792 373.255 804.844C321.437 809.09 252.528 826.03 283.198 878.948L283.15 878.958Z" fill="black" fill-opacity="0.15"/>
<path d="M215.342 579.357C269.536 664.84 405.88 643.522 467.339 588.052C467.339 588.052 363.613 499.191 305.447 505.242C253.629 509.488 184.72 526.428 215.39 579.347L215.342 579.357Z" fill="black" fill-opacity="0.15"/>
<path d="M147.534 279.755C201.728 365.238 338.072 343.92 399.531 288.45C399.531 288.45 295.805 199.589 237.639 205.64C185.821 209.886 116.912 226.826 147.582 279.745L147.534 279.755Z" fill="black" fill-opacity="0.15"/>
<path d="M351.065 1179.03C405.26 1264.52 541.603 1243.2 603.062 1187.73C603.062 1187.73 499.336 1098.87 441.17 1104.92C389.352 1109.16 320.443 1126.1 351.113 1179.02L351.065 1179.03Z" fill="black" fill-opacity="0.15"/>
<path d="M419.006 1479.23C473.201 1564.71 609.545 1543.39 671.004 1487.92C671.004 1487.92 567.278 1399.06 509.112 1405.11C457.293 1409.36 388.384 1426.3 419.055 1479.21L419.006 1479.23Z" fill="black" fill-opacity="0.15"/>
<path d="M1131.89 702.658C1186.09 788.141 1322.43 766.823 1383.89 711.353C1383.89 711.353 1280.16 622.492 1222 628.543C1170.18 632.79 1101.27 649.73 1131.94 702.648L1131.89 702.658Z" fill="black" fill-opacity="0.15"/>
<path d="M1556.21 614.518C1610.41 700.001 1746.75 678.684 1808.21 623.214C1808.21 623.214 1704.48 534.352 1646.32 540.404C1594.5 544.65 1525.59 561.59 1556.26 614.508L1556.21 614.518Z" fill="black" fill-opacity="0.15"/>
<path d="M1064.08 403.056C1118.28 488.539 1254.62 467.222 1316.08 411.752C1316.08 411.752 1212.36 322.89 1154.19 328.942C1102.37 333.188 1033.46 350.128 1064.13 403.046L1064.08 403.056Z" fill="black" fill-opacity="0.15"/>
<path d="M996.276 103.454C1050.47 188.937 1186.81 167.62 1248.27 112.15C1248.27 112.15 1144.55 23.2883 1086.38 29.3395C1034.56 33.5857 965.654 50.526 996.324 103.444L996.276 103.454Z" fill="black" fill-opacity="0.15"/>
<path d="M1488.41 314.917C1542.6 400.399 1678.94 379.082 1740.4 323.612C1740.4 323.612 1636.68 234.751 1578.51 240.802C1526.69 245.048 1457.78 261.988 1488.45 314.907L1488.41 314.917Z" fill="black" fill-opacity="0.15"/>
<path d="M1420.6 15.3146C1474.79 100.797 1611.14 79.4799 1672.59 24.0099C1672.59 24.0099 1568.87 -64.8514 1510.7 -58.8002C1458.88 -54.554 1389.98 -37.6138 1420.65 15.3045L1420.6 15.3146Z" fill="black" fill-opacity="0.15"/>
<path d="M1199.81 1002.73C1254 1088.22 1390.35 1066.9 1451.8 1011.43C1451.8 1011.43 1348.08 922.567 1289.91 928.618C1238.09 932.864 1169.19 949.805 1199.86 1002.72L1199.81 1002.73Z" fill="black" fill-opacity="0.15"/>
<path d="M1624.13 914.593C1678.32 1000.08 1814.67 978.758 1876.13 923.289C1876.13 923.289 1772.4 834.427 1714.23 840.478C1662.41 844.725 1593.51 861.665 1624.18 914.583L1624.13 914.593Z" fill="black" fill-opacity="0.15"/>
<path d="M1267.75 1302.93C1321.94 1388.41 1458.29 1367.09 1519.75 1311.62C1519.75 1311.62 1416.02 1222.76 1357.85 1228.81C1306.04 1233.06 1237.13 1250 1267.8 1302.92L1267.75 1302.93Z" fill="black" fill-opacity="0.15"/>
<path d="M1692.07 1214.79C1746.26 1300.27 1882.61 1278.95 1944.07 1223.48C1944.07 1223.48 1840.34 1134.62 1782.18 1140.67C1730.36 1144.92 1661.45 1161.86 1692.12 1214.78L1692.07 1214.79Z" fill="black" fill-opacity="0.15"/>
<path d="M-166.676 30.1481C-112.481 115.631 23.8625 94.3134 85.3213 38.8434C85.3213 38.8434 -18.4045 -50.0179 -76.5706 -43.9667C-128.389 -39.7204 -197.298 -22.7802 -166.628 30.138L-166.676 30.1481Z" fill="black" fill-opacity="0.15"/>
<path d="M55.324 -16.7944C109.519 68.6884 245.862 47.3709 307.321 -8.09905C307.321 -8.09905 203.595 -96.9604 145.429 -90.9092C93.611 -86.6629 24.7019 -69.7227 55.3725 -16.8044L55.324 -16.7944Z" fill="black" fill-opacity="0.15"/>
</g>
</g>
<defs>
<linearGradient id="paint0_linear_12_18" x1="864" y1="0" x2="864" y2="1700.5" gradientUnits="userSpaceOnUse">
<stop offset="0.663828" stop-color="#D9D9D9"/>
<stop offset="0.827231" stop-color="#D9D9D9" stop-opacity="0"/>
</linearGradient>
</defs>
</svg>
